<?xml version="1.0" encoding="UTF-8" standalone="no"?>
<svg
   xmlns:dc="http://purl.org/dc/elements/1.1/"
   xmlns:cc="http://creativecommons.org/ns#"
   xmlns:rdf="http://www.w3.org/1999/02/22-rdf-syntax-ns#"
   xmlns:svg="http://www.w3.org/2000/svg"
   xmlns="http://www.w3.org/2000/svg"
   xmlns:sodipodi="http://sodipodi.sourceforge.net/DTD/sodipodi-0.dtd"
   xmlns:inkscape="http://www.inkscape.org/namespaces/inkscape"
   inkscape:version="1.0beta1 (32d4812, 2019-09-19)"
   height="64"
   width="63.999996"
   sodipodi:docname="which.svg"
   xml:space="preserve"
   viewBox="0 0 63.999996 64"
   y="0px"
   x="0px"
   id="Layer_1"
   version="1.1"><metadata
   id="metadata190">
  <rdf:RDF>
    <cc:Work
       rdf:about="">
      <dc:format>image/svg+xml</dc:format>
      <dc:type
         rdf:resource="http://purl.org/dc/dcmitype/StillImage" />
      <dc:title></dc:title>
    </cc:Work>
  </rdf:RDF>
</metadata>
<defs
   id="defs188" />
<sodipodi:namedview
   inkscape:current-layer="Layer_1"
   inkscape:window-maximized="0"
   inkscape:window-y="23"
   inkscape:window-x="0"
   inkscape:cy="163.32957"
   inkscape:cx="307.9874"
   inkscape:zoom="1.3721963"
   fit-margin-bottom="0"
   fit-margin-right="0"
   fit-margin-left="0"
   fit-margin-top="0"
   showgrid="false"
   id="namedview186"
   inkscape:window-height="1005"
   inkscape:window-width="1600"
   inkscape:pageshadow="2"
   inkscape:pageopacity="0"
   guidetolerance="10"
   gridtolerance="10"
   objecttolerance="10"
   borderopacity="1"
   inkscape:document-rotation="0"
   bordercolor="#666666"
   pagecolor="#ffffff" />



























<g
   transform="matrix(0.12500317,0,0,0.12500317,0,-3.3336233)"
   id="g215">
  <path
     inkscape:connector-curvature="0"
     style="fill:#434a54"
     d="M 400.304,198.951 229.636,92.29 c -3.156,-1.977 -7.109,-2.156 -10.438,-0.492 -3.312,1.672 -5.531,4.953 -5.843,8.664 -2.938,35.726 5.265,64.373 24.39,85.139 12.859,13.96 30.546,24.155 52.577,30.304 16.516,4.617 35.438,6.961 56.233,6.961 v 0 c 27.937,0 49.296,-4.227 50.202,-4.406 4.281,-0.867 7.609,-4.25 8.391,-8.547 0.781,-4.306 -1.141,-8.642 -4.844,-10.962 z"
     id="path127" />
  <path
     inkscape:connector-curvature="0"
     style="fill:#434a54"
     d="m 495.567,360.228 c -7.781,-4.094 -18.718,-7.141 -33.405,-9.297 -27.953,-4.093 -67.796,-4.655 -106.671,-4.655 -14.655,0 -29.904,0.094 -46.045,0.188 -17.25,0.094 -35.108,0.188 -53.452,0.188 -18.359,0 -36.218,-0.094 -53.467,-0.188 -16.14,-0.094 -31.375,-0.188 -46.046,-0.188 -38.874,0 -78.701,0.562 -106.669,4.655 -14.688,2.156 -25.609,5.203 -33.406,9.297 C 2.844,367.369 0,377.088 0,383.993 c 0,11.688 7.953,23.375 23.671,34.797 13.437,9.766 32.546,19.234 55.233,27.391 51.124,18.374 114.013,28.468 177.089,28.468 63.062,0 125.95,-10.094 177.074,-28.468 22.688,-8.156 41.797,-17.625 55.233,-27.391 15.718,-11.422 23.687,-23.109 23.687,-34.797 10e-4,-6.905 -2.858,-16.64 -16.42,-23.765 z"
     id="path141" />
  <path
     inkscape:connector-curvature="0"
     style="fill:#656d78"
     d="M 362.304,386.634 297.54,138.164 c -0.688,-2.641 -2.359,-4.914 -4.672,-6.359 L 229.636,92.29 c -2.938,-1.836 -6.578,-2.133 -9.766,-0.797 -3.203,1.344 -5.546,4.148 -6.296,7.523 l -63.999,287.992 c -0.172,0.766 -0.25,1.547 -0.25,2.328 0,3.688 1.781,13.047 18.328,20.406 17.297,7.688 47.015,11.594 88.342,11.594 41.312,0 71.03,-3.905 88.326,-11.594 16.546,-7.359 18.327,-16.719 18.327,-20.406 -0.001,-0.921 -0.11,-1.812 -0.344,-2.702 z"
     id="path143" />
  <g
     id="g149">
	<path
   inkscape:connector-curvature="0"
   style="fill:#ffce54"
   d="m 355.429,360.244 c -2.641,2.312 -6.233,4.656 -11.108,6.828 -17.296,7.688 -47.015,11.578 -88.326,11.578 -41.327,0 -71.045,-3.891 -88.342,-11.578 -5.422,-2.406 -9.25,-5.031 -11.953,-7.609 l -6.125,27.546 c -0.172,0.766 -0.25,1.547 -0.25,2.328 0,3.688 1.781,13.047 18.328,20.406 17.297,7.688 47.015,11.594 88.342,11.594 41.312,0 71.03,-3.905 88.326,-11.594 16.546,-7.359 18.327,-16.719 18.327,-20.406 0,-0.922 -0.109,-1.812 -0.344,-2.703 z"
   id="path145" />

	<rect
   x="235.32401"
   y="378.65302"
   style="fill:#ffce54"
   width="42.669998"
   height="42.279999"
   id="rect147" />

</g>
  <path
     inkscape:connector-curvature="0"
     style="opacity:0.1;fill:#ffffff;enable-background:new"
     d="m 188.996,409.743 c -16.562,-7.359 -18.344,-16.719 -18.344,-20.406 0,-0.781 0.094,-1.562 0.25,-2.328 L 234.901,99.017 c 0.219,-0.984 0.594,-1.906 1.062,-2.773 l -6.328,-3.953 c -2.938,-1.836 -6.578,-2.133 -9.766,-0.797 -3.203,1.344 -5.546,4.148 -6.296,7.523 l -63.999,287.992 c -0.172,0.766 -0.25,1.547 -0.25,2.328 0,3.688 1.781,13.047 18.328,20.406 17.297,7.688 47.015,11.594 88.342,11.594 3.641,0 7.188,-0.031 10.656,-0.094 -35.796,-0.625 -61.889,-4.499 -77.654,-11.5 z"
     id="path151" />
  <path
     inkscape:connector-curvature="0"
     style="fill:#f6bb42"
     d="m 277.993,431.602 v 0 h -42.67 c -5.891,0 -10.672,-4.766 -10.672,-10.672 v -42.28 c 0,-5.875 4.781,-10.656 10.672,-10.656 h 42.67 c 5.891,0 10.656,4.781 10.656,10.656 v 42.28 c 0,2.844 -1.125,5.547 -3.125,7.547 -2,2 -4.703,3.125 -7.531,3.125 z m -31.999,-21.328 h 21.328 v -20.938 h -21.328 z"
     id="path153" />
  <g
     id="g155">
</g>
  <g
     id="g157">
</g>
  <g
     id="g159">
</g>
  <g
     id="g161">
</g>
  <g
     id="g163">
</g>
  <g
     id="g165">
</g>
  <g
     id="g167">
</g>
  <g
     id="g169">
</g>
  <g
     id="g171">
</g>
  <g
     id="g173">
</g>
  <g
     id="g175">
</g>
  <g
     id="g177">
</g>
  <g
     id="g179">
</g>
  <g
     id="g181">
</g>
  <g
     id="g183">
</g>
</g>

</svg>
